<svg xmlns="http://www.w3.org/2000/svg" fill-rule="evenodd" stroke-linecap="square" stroke-miterlimit="5" clip-rule="evenodd" version="1" viewBox="0 0 616 246">
  <defs>
    <linearGradient id="grad1" x1="0%" y1="20%" x2="0%" y2="85%">
      <stop offset="0%" style="stop-color:#1976D2;stop-opacity:1" />
      <stop offset="45%" style="stop-color:#1976D2;stop-opacity:1" />
      <stop offset="45.1%" style="stop-color:#BBDEFB;stop-opacity:1" />
      <stop offset="60.5%" style="stop-color:#BBDEFB;stop-opacity:1" />
      <stop offset="60.6%" style="stop-color:#210041;stop-opacity:1" />
      <stop offset="75.5%" style="stop-color:#210041;stop-opacity:1" />
      <stop offset="75.6%" style="stop-color:#9C27B0;stop-opacity:1" />
      <stop offset="92.5%" style="stop-color:#9C27B0;stop-opacity:1" />
      <stop offset="92.6%" style="stop-color:#E1BEE7;stop-opacity:1" />
      <stop offset="100%" style="stop-color:#E1BEE7;stop-opacity:1" />
    </linearGradient>
  </defs>
    <path fill="url(#grad1)" stroke="#fff" stroke-width="5" d="M52 84h65L88 191h21l-11 39H13l10-39h22l18-68H41l11-39zm32-47c1-3 2-6 5-9a36 36 0 0 1 16-14l11-2 9 2a17 17 0 0 1 9 14v9l-5 10a37 37 0 0 1-17 13c-3 2-6 2-10 2-3 0-6 0-9-2l-7-5-3-8 1-10zM135 157a111 111 0 0 1 65-71c11-4 22-6 33-6 12 0 21 2 30 6a52 52 0 0 1 29 41c2 9 1 19-2 30a101 101 0 0 1-36 54c-8 7-18 12-29 16-10 5-21 7-33 7s-22-2-30-7a50 50 0 0 1-29-40c-1-10-1-20 2-30zm42 0c-1 5-2 10-1 15l4 12 10 8c3 2 8 3 13 3l14-3 13-8a54 54 0 0 0 19-43c0-5-2-9-4-12s-5-6-9-8l-13-2-15 2-13 8a52 52 0 0 0-18 28zM386 84h29l-10 37h-29l-17 62-2 8 1 6 4 2 5 1 9-1 9-2-1 27-18 7c-6 2-14 3-22 3-5 0-11-1-15-3-5-2-9-5-12-9l-5-15c-1-6 0-13 2-21l18-65h-21l10-37h21l10-35 49-20-15 55zM438 84h76l-10 39h-18l7 62 40-62h-16l10-39h76l-10 39h-20l-72 108h-43l-14-108h-17l11-39z"/>
</svg>
